<svg width="303" height="64" viewBox="0 0 303 64" fill="none" xmlns="http://www.w3.org/2000/svg">
<g clip-path="url(#clip0_1420_28)">
<g clip-path="url(#clip1_1420_28)">
<path d="M28.7792 30.5127H32.2634H42.6081C43.4724 30.5127 44.1746 29.8173 44.1746 28.9613V27.9448C44.1746 27.0889 43.4724 26.3934 42.6081 26.3934H28.7792V22.916H42.6081C45.3901 22.916 47.6859 25.1897 47.6859 27.9448V28.9613C47.6859 31.1547 46.2274 33.0272 44.2286 33.7226L47.6859 38.9655H43.4994L40.2312 33.9901H32.2634V38.9655H28.7792V33.9901V30.5127ZM58.1842 38.9655H54.0247L64.5312 22.916H68.367L78.9003 38.9655H74.7408L66.4488 26.3666L58.1842 38.9655ZM100.896 35.5148C101.707 35.5148 102.382 34.8728 102.382 34.0704V33.8029H105.866V34.0704C105.866 36.772 103.624 38.9922 100.896 38.9922H94.9812H90.2002C87.4721 38.9922 85.2577 36.772 85.2577 34.0704V27.8378C85.2577 25.1362 87.4721 22.916 90.2002 22.916H94.9812H100.896C103.624 22.916 105.866 25.1362 105.866 27.8378V28.1053H102.382V27.8378C102.382 27.0354 101.707 26.3934 100.896 26.3934H94.9812H90.2002C89.3904 26.3934 88.742 27.0354 88.742 27.8378V34.0704C88.742 34.8728 89.3904 35.5148 90.2002 35.5148H94.9812H100.896ZM120.401 26.3934H112.218V22.916H112.92H120.401H123.885H131.367H132.096V26.3934H123.885V38.9655H120.401V26.3934Z" fill="white"/>
<path d="M138.439 22.916H141.923V38.9655H138.439V22.916ZM156.465 26.3934H148.281V22.916H148.983H156.465H159.949H167.431H168.159V26.3934H159.949V38.9655H156.465V26.3934Z" fill="#3772FF"/>
<path d="M4.48779 22.7979V31.7043H22.8264V28.8823H10.6261L8.08182 30.748V25.5695H22.8264V22.7979H4.48779Z" fill="white"/>
<path d="M8.08813 35.2695H4.48779V38.8351H8.08813V35.2695Z" fill="#3772FF"/>
<path d="M4.48803 31.7041H0.887695V35.2697H4.48803V31.7041Z" fill="#3772FF"/>
</g>
</g>
<defs>
<clipPath id="clip0_1420_28">
<rect width="302" height="63" fill="white" transform="translate(0.655396 0.5)"/>
</clipPath>
<clipPath id="clip1_1420_28">
<rect width="176.079" height="36.9548" fill="white" transform="translate(0.655396 22.5225)"/>
</clipPath>
</defs>
</svg>
