<svg width="303" height="64" viewBox="0 0 303 64" fill="none" xmlns="http://www.w3.org/2000/svg">
<g clip-path="url(#clip0_1409_81)">
<path d="M55.1579 40.1299V17.5877H66.1714C67.6957 17.5877 69.0375 17.8882 70.1968 18.4894C71.3775 19.069 72.29 19.8848 72.934 20.9368C73.5996 21.9888 73.9323 23.2018 73.9323 24.5758C73.9323 26.0142 73.5352 27.2808 72.7408 28.3757C71.9465 29.4706 70.8838 30.2864 69.5527 30.8232L74.5442 40.1299H69.3273L64.9154 31.4994H59.8273V40.1299H55.1579ZM59.8273 27.6673H65.7527C66.8047 27.6673 67.642 27.3882 68.2646 26.83C68.9086 26.2718 69.2307 25.5418 69.2307 24.6402C69.2307 23.7385 68.9086 23.0085 68.2646 22.4503C67.642 21.8922 66.8047 21.6131 65.7527 21.6131H59.8273V27.6673ZM77.0145 40.1299V17.5877H81.684V40.1299H77.0145ZM92.7767 40.1299L83.631 17.5877H88.6869L95.5784 35.3316L102.631 17.5877H107.461L98.1869 40.1299H92.7767ZM109.375 40.1299V17.5877H126.7V21.6453H114.044V26.7978H122.385V30.7266H114.044V36.0723H126.829V40.1299H109.375ZM130.131 40.1299V17.5877H141.144C142.669 17.5877 144.01 17.8882 145.17 18.4894C146.351 19.069 147.263 19.8848 147.907 20.9368C148.573 21.9888 148.905 23.2018 148.905 24.5758C148.905 26.0142 148.508 27.2808 147.714 28.3757C146.919 29.4706 145.857 30.2864 144.526 30.8232L149.517 40.1299H144.3L139.888 31.4994H134.8V40.1299H130.131ZM134.8 27.6673H140.726C141.778 27.6673 142.615 27.3882 143.238 26.83C143.882 26.2718 144.204 25.5418 144.204 24.6402C144.204 23.7385 143.882 23.0085 143.238 22.4503C142.615 21.8922 141.778 21.6131 140.726 21.6131H134.8V27.6673ZM150.144 40.1299L159.419 17.5877H164.797L173.975 40.1299H168.919L166.632 34.2045H157.326L155.007 40.1299H150.144ZM158.775 30.4689H165.215L161.995 22.1605L158.775 30.4689Z" fill="url(#paint0_linear_1409_81)"/>
<path fill-rule="evenodd" clip-rule="evenodd" d="M22.6703 7.16245C20.9848 7.26079 19.0688 7.63669 17.4424 8.18839C15.5796 8.82021 14.8805 9.21718 15.9629 9.02828C19.0756 8.4855 21.5816 8.59998 23.9551 9.39374C27.7277 10.6555 30.6206 13.6475 31.4982 17.1958C32.0637 19.4827 31.7547 22.3804 30.7316 24.3833C29.8249 26.1585 27.6881 28.0094 25.5628 28.8603C25.0717 29.057 25.0889 29.0148 25.8496 28.1584C26.8586 27.0223 27.5112 25.5903 27.8819 23.6981C28.2521 21.8087 28.2435 21.3751 27.8063 19.884C27.3726 18.4051 26.2031 16.9212 24.9401 16.2473C22.384 14.8832 18.8339 15.064 16.1804 16.693C12.4331 18.9938 10.2438 24.2078 11.0297 28.9603C11.6473 32.695 13.6395 35.7882 17.2621 38.6369C20.2388 40.9778 24.6611 42.1174 28.8301 41.6181C33.3599 41.0757 39.3999 38.3911 42.0624 35.7368C43.1446 34.6579 43.15 34.6473 43.4889 32.8856C43.676 31.9132 43.8482 30.5036 43.8715 29.7531V29.7531C43.8956 28.9789 43.3287 28.3125 42.5606 28.2123L42.3058 28.1791C41.4214 28.0637 40.9817 27.956 41.3287 27.9401C41.6757 27.9241 42.3966 27.8558 42.9306 27.7882V27.7882C43.4747 27.7194 43.8694 27.2363 43.8285 26.6894L43.7936 26.2237C43.6003 23.6413 42.6548 20.4889 41.3543 18.0896L41.2083 17.8202C40.9019 17.255 40.3107 16.903 39.6678 16.903V16.903C39.0926 16.903 38.6246 16.8178 38.6246 16.7132C38.6246 16.6088 38.9896 16.5233 39.4358 16.5233C40.3266 16.5233 40.4897 16.2439 39.9173 15.6984C39.6521 15.4456 39.1676 15.3806 37.4386 15.3652C34.4401 15.3389 33.8799 15.1071 36.3643 14.9208C39.3453 14.6974 39.3285 14.7198 37.7232 13.1057C33.6642 9.02467 28.1406 6.84388 22.6703 7.16245ZM17.3522 9.67605C14.3416 10.1408 11.6682 11.5544 9.42899 13.8654C1.82809 21.7102 2.34872 34.0671 10.5979 41.6065C15.3577 45.9569 20.8557 48.0117 27.1772 47.8026C29.0973 47.739 29.4638 47.7609 28.7095 47.8938C27.2186 48.1561 22.9234 47.9315 21.138 47.4977C17.0595 46.5069 13.77 44.7801 10.569 41.9498C7.20964 38.9796 5.15505 35.4769 4.18879 31.0732C3.83797 29.4744 3.79885 28.8876 3.87998 26.4426C3.9849 23.2759 4.30164 21.8226 5.44872 19.2433C6.28519 17.3625 6.97528 16.2642 8.38016 14.5774C8.96713 13.8725 9.35076 13.2959 9.23268 13.2959C8.78325 13.2959 6.57688 15.0241 5.4325 16.2725C3.36259 18.5304 1.87947 21.2845 1.08897 24.3381C0.738516 25.6915 0.679929 26.3748 0.684436 29.0534C0.690565 32.745 0.964941 34.0399 2.39361 37.1219C3.46282 39.4284 4.63947 41.0941 6.50405 42.9412C9.75259 46.1591 13.5941 48.2678 18.0805 49.2956C20.182 49.7771 25.1195 49.7829 27.1772 49.3064C28.7068 48.9524 31.5038 47.9908 32.4039 47.5097C32.8681 47.2616 32.8976 47.2042 32.6146 47.0998C32.377 47.0119 32.5776 46.8822 33.3368 46.6328C35.7382 45.8436 38.5712 44.1498 40.6876 42.2378C41.8663 41.1729 43.7606 38.8615 43.5228 38.7782C43.4365 38.7478 42.9277 39.0339 42.3923 39.414C38.8586 41.9224 33.8891 43.4817 29.4306 43.4809C21.9202 43.4798 15.044 39.5427 11.6734 33.3143C9.82776 29.9035 9.59899 25.472 11.0778 21.7747C11.9649 19.5565 13.651 17.3347 15.2791 16.2384C20.0922 12.9971 26.2138 14.1113 28.312 18.6103C28.7567 19.5638 28.7995 19.8481 28.7977 21.8391C28.7957 23.9039 28.7638 24.0936 28.2101 25.3338C27.8882 26.0551 27.6745 26.6958 27.7357 26.7577C27.9397 26.9646 29.5696 24.859 30.1221 23.6744C32.6982 18.1513 29.4045 11.8086 23.0354 10.0284C21.5863 9.62327 18.809 9.45107 17.3522 9.67605ZM9.06232 19.3236C7.70341 20.8745 6.59148 22.9298 6.05805 24.8767C5.90067 25.451 5.7103 27.0315 5.63476 28.3889L5.49758 30.8569L5.53093 28.199C5.56085 25.8149 5.61818 25.3754 6.08743 23.932C6.70505 22.0318 7.98626 19.9296 9.26404 18.7197C9.76791 18.2426 10.2188 17.8523 10.266 17.8523C10.3131 17.8523 9.77152 18.5145 9.06232 19.3236ZM19.9388 21.7127C19.4793 22.2794 19.3881 22.3192 19.0697 22.0924C18.8743 21.953 18.5132 21.8391 18.2675 21.8391C17.9727 21.8391 17.8817 21.7751 17.9994 21.6511C18.1101 21.5346 18.3866 21.526 18.7261 21.6286C19.1535 21.7576 19.3704 21.7165 19.7104 21.4412C20.3931 20.8885 20.5022 21.0182 19.9388 21.7127ZM35.6414 22.8664C35.4501 23.0139 35.2169 23.0845 35.1231 23.0236C35.0296 22.9626 35.1098 22.8479 35.3014 22.769C35.866 22.536 36.0149 22.5787 35.6414 22.8664ZM22.6271 23.3104C22.5221 23.6018 22.5674 23.6036 21.8347 23.2791V23.2791C21.7077 23.2229 21.7522 23.0326 21.891 23.0384L21.9703 23.0418C22.4807 23.0632 22.6858 23.1472 22.6271 23.3104ZM18.7944 24.0429C18.7944 24.1999 18.4443 24.2887 18.3641 24.152C18.312 24.0634 18.3875 23.9906 18.5319 23.9906C18.6763 23.9906 18.7944 24.0142 18.7944 24.0429ZM36.8938 24.5319C37.1305 24.5211 37.1784 24.5771 37.0488 24.7136C36.9194 24.8499 36.7025 24.8138 36.3459 24.5968C36.0623 24.4243 35.9926 24.3424 36.1909 24.4153C36.3892 24.4881 36.7056 24.5406 36.8938 24.5319ZM44.9342 33.2866C44.2868 34.4173 41.5937 37.2429 40.4057 38.0378C37.9085 39.7088 34.879 41.0053 30.9997 42.0635C28.0273 42.8744 29.1472 43.1904 32.9915 42.6258C38.8669 41.7628 43.6872 38.3009 45.3218 33.7705C45.7656 32.5405 45.5298 32.2462 44.9342 33.2866ZM32.0859 47.2037C32.026 47.2667 31.8704 47.2735 31.7404 47.2187C31.5966 47.1581 31.6393 47.1131 31.8493 47.104C32.0393 47.0958 32.1457 47.1406 32.0859 47.2037ZM31.0531 47.4687C30.8052 47.5522 30.3996 47.6191 30.1517 47.6172C29.7468 47.6139 29.756 47.5989 30.2418 47.4687C30.5393 47.389 30.9449 47.3221 31.1432 47.3202C31.4257 47.3174 31.4062 47.3497 31.0531 47.4687Z" fill="url(#paint1_linear_1409_81)"/>
<path fill-rule="evenodd" clip-rule="evenodd" d="M17.4443 9.67605C14.4171 10.1408 11.7289 11.5544 9.47731 13.8654C1.83441 21.7102 2.35792 34.0671 10.6527 41.6065C15.4387 45.9569 20.9671 48.0117 27.3235 47.8026C29.2542 47.739 29.6228 47.7609 28.8643 47.8938C27.3652 48.1561 23.0463 47.9315 21.251 47.4977C17.1499 46.5069 13.8423 44.7801 10.6237 41.9498C7.24569 38.9796 5.17975 35.4769 4.20815 31.0732C3.85539 29.4744 3.81606 28.8876 3.89763 26.4426C4.00313 23.2759 4.32162 21.8226 5.47504 19.2433C6.31614 17.3625 7.01004 16.2642 8.42268 14.5774C9.01289 13.8725 9.39864 13.2959 9.2799 13.2959C8.828 13.2959 6.60943 15.0241 5.45873 16.2725C3.37739 18.5304 1.88608 21.2845 1.09121 24.3381C0.738816 25.6915 0.679906 26.3748 0.684437 29.0534C0.6906 32.745 0.966491 34.0399 2.40306 37.1219C3.47817 39.4284 4.66132 41.0941 6.5362 42.9412C9.80269 46.1591 13.6654 48.2678 18.1766 49.2956C20.2897 49.7771 25.2545 49.7829 27.3235 49.3064C28.8616 48.9524 31.674 47.9908 32.5791 47.5097C33.0459 47.2616 33.0756 47.2042 32.791 47.0998C32.5521 47.0119 32.7538 46.8822 33.5172 46.6328C35.9319 45.8436 38.7805 44.1498 40.9086 42.2378C42.0938 41.1729 43.9986 38.8615 43.7595 38.7782C43.6726 38.7478 43.1611 39.0339 42.6227 39.414C39.0695 41.9224 34.0726 43.4817 29.5894 43.4809C22.0375 43.4798 15.1233 39.5427 11.7341 33.3143C9.87827 29.9035 9.64825 25.472 11.1352 21.7747C12.0272 19.5565 13.7227 17.3347 15.3597 16.2384C20.1994 12.9971 26.3548 14.1113 28.4646 18.6103C28.9118 19.5638 28.9548 19.8481 28.953 21.8391C28.951 23.9039 28.9189 24.0936 28.3622 25.3338C28.0385 26.0551 27.8237 26.6958 27.8851 26.7577C28.0903 26.9646 29.7292 24.859 30.2848 23.6744C32.8751 18.1513 29.5631 11.8086 23.1588 10.0284C21.7018 9.62327 18.9092 9.45107 17.4443 9.67605ZM9.1086 19.3236C7.74219 20.8745 6.62412 22.9298 6.08774 24.8767C5.92949 25.451 5.73807 27.0315 5.66211 28.3889L5.52417 30.8569L5.5577 28.199C5.58779 25.8149 5.64544 25.3754 6.11728 23.932C6.73831 22.0318 8.0266 19.9296 9.31145 18.7197C9.8181 18.2426 10.2715 17.8523 10.3189 17.8523C10.3663 17.8523 9.82172 18.5145 9.1086 19.3236ZM45.1786 33.2866C44.5277 34.4173 41.8197 37.2429 40.6251 38.0378C38.1142 39.7088 35.0679 41.0053 31.1672 42.0635C28.1784 42.8744 29.3044 43.1904 33.17 42.6258C39.0778 41.7628 43.9248 38.3009 45.5684 33.7705C46.0147 32.5405 45.7776 32.2462 45.1786 33.2866ZM32.2593 47.2037C32.1992 47.2667 32.0427 47.2735 31.912 47.2187C31.7674 47.1581 31.8103 47.1131 32.0215 47.104C32.2126 47.0958 32.3195 47.1406 32.2593 47.2037ZM31.2208 47.4687C30.9716 47.5522 30.5637 47.6191 30.3145 47.6172C29.9074 47.6139 29.9166 47.5989 30.4051 47.4687C30.7042 47.389 31.1121 47.3221 31.3115 47.3202C31.5955 47.3174 31.5759 47.3497 31.2208 47.4687Z" fill="url(#paint2_linear_1409_81)"/>
<g filter="url(#filter0_b_1409_81)">
<path fill-rule="evenodd" clip-rule="evenodd" d="M17.5337 9.67605C14.4903 10.1408 11.7877 11.5544 9.52418 13.8654C1.84055 21.7102 2.36684 34.0671 10.7058 41.6065C15.5174 45.9569 21.0752 48.0117 27.4655 47.8026C29.4066 47.739 29.777 47.7609 29.0146 47.8938C27.5075 48.1561 23.1655 47.9315 21.3606 47.4977C17.2377 46.5069 13.9124 44.7801 10.6766 41.9498C7.28067 38.9796 5.20372 35.4769 4.22693 31.0732C3.8723 29.4744 3.83276 28.8876 3.91476 26.4426C4.02082 23.2759 4.34101 21.8226 5.50058 19.2433C6.34616 17.3625 7.04376 16.2642 8.46393 14.5774C9.05729 13.8725 9.44509 13.2959 9.32573 13.2959C8.87141 13.2959 6.64102 15.0241 5.48418 16.2725C3.39174 18.5304 1.89248 21.2845 1.09338 24.3381C0.739107 25.6915 0.679883 26.3748 0.684439 29.0534C0.690635 32.745 0.967996 34.0399 2.41222 37.1219C3.49307 39.4284 4.68253 41.0941 6.5674 42.9412C9.8513 46.1591 13.7346 48.2678 18.2699 49.2956C20.3942 49.7771 25.3855 49.7829 27.4655 49.3064C29.0118 48.9524 31.8392 47.9908 32.7491 47.5097C33.2184 47.2616 33.2483 47.2042 32.9622 47.0998C32.722 47.0119 32.9248 46.8822 33.6922 46.6328C36.1198 45.8436 38.9836 44.1498 41.1231 42.2378C42.3145 41.1729 44.2295 38.8615 43.9891 38.7782C43.9018 38.7478 43.3876 39.0339 42.8463 39.414C39.2741 41.9224 34.2506 43.4817 29.7435 43.4809C22.1514 43.4798 15.2003 39.5427 11.793 33.3143C9.92729 29.9035 9.69603 25.472 11.1909 21.7747C12.0877 19.5565 13.7922 17.3347 15.4379 16.2384C20.3035 12.9971 26.4917 14.1113 28.6127 18.6103C29.0623 19.5638 29.1055 19.8481 29.1037 21.8391C29.1017 23.9039 29.0694 24.0936 28.5098 25.3338C28.1843 26.0551 27.9683 26.6958 28.0301 26.7577C28.2364 26.9646 29.884 24.859 30.4426 23.6744C33.0467 18.1513 29.7171 11.8086 23.2787 10.0284C21.8138 9.62327 19.0063 9.45107 17.5337 9.67605ZM9.15351 19.3236C7.77982 20.8745 6.65578 22.9298 6.11654 24.8767C5.95745 25.451 5.76501 27.0315 5.68865 28.3889L5.54997 30.8569L5.58368 28.199C5.61393 25.8149 5.67189 25.3754 6.14625 23.932C6.77059 22.0318 8.06575 19.9296 9.35744 18.7197C9.86679 18.2426 10.3226 17.8523 10.3703 17.8523C10.4179 17.8523 9.87043 18.5145 9.15351 19.3236ZM45.4159 33.2866C44.7614 34.4173 42.039 37.2429 40.8381 38.0378C38.3137 39.7088 35.2512 41.0053 31.3297 42.0635C28.325 42.8744 29.457 43.1904 33.3432 42.6258C39.2825 41.7628 44.1553 38.3009 45.8077 33.7705C46.2563 32.5405 46.018 32.2462 45.4159 33.2866ZM32.4277 47.2037C32.3672 47.2667 32.2099 47.2735 32.0785 47.2187C31.9331 47.1581 31.9763 47.1131 32.1886 47.104C32.3806 47.0958 32.4882 47.1406 32.4277 47.2037ZM31.3836 47.4687C31.1331 47.5522 30.723 47.6191 30.4725 47.6172C30.0631 47.6139 30.0724 47.5989 30.5636 47.4687C30.8643 47.389 31.2743 47.3221 31.4748 47.3202C31.7603 47.3174 31.7406 47.3497 31.3836 47.4687Z" fill="white" fill-opacity="0.25"/>
</g>
</g>
<defs>
<filter id="filter0_b_1409_81" x="-3.19866" y="3.24897" width="53.1217" height="50.2941" filterUnits="userSpaceOnUse" color-interpolation-filters="sRGB">
<feFlood flood-opacity="0" result="BackgroundImageFix"/>
<feGaussianBlur in="BackgroundImageFix" stdDeviation="1.94143"/>
<feComposite in2="SourceAlpha" operator="in" result="effect1_backgroundBlur_1409_81"/>
<feBlend mode="normal" in="SourceGraphic" in2="effect1_backgroundBlur_1409_81" result="shape"/>
</filter>
<linearGradient id="paint0_linear_1409_81" x1="55.8073" y1="34.0126" x2="183.631" y2="36.6864" gradientUnits="userSpaceOnUse">
<stop stop-color="#55ADFF"/>
<stop offset="1" stop-color="#9543E4"/>
</linearGradient>
<linearGradient id="paint1_linear_1409_81" x1="19.2367" y1="3.50003" x2="47.6391" y2="33.6636" gradientUnits="userSpaceOnUse">
<stop stop-color="#55ADFF"/>
<stop offset="1" stop-color="#A528DD"/>
</linearGradient>
<linearGradient id="paint2_linear_1409_81" x1="19.3391" y1="3.50003" x2="47.7317" y2="33.8198" gradientUnits="userSpaceOnUse">
<stop stop-color="#55ADFF"/>
<stop offset="1" stop-color="#A528DD"/>
</linearGradient>
<clipPath id="clip0_1409_81">
<rect width="302" height="63" fill="white" transform="translate(0.684204 0.5)"/>
</clipPath>
</defs>
</svg>
